<?xml version="1.0" encoding="UTF-8" standalone="no"?>
<!-- Created with Inkscape (http://www.inkscape.org/) -->

<svg
   xmlns:dc="http://purl.org/dc/elements/1.1/"
   xmlns:cc="http://creativecommons.org/ns#"
   xmlns:rdf="http://www.w3.org/1999/02/22-rdf-syntax-ns#"
   xmlns:svg="http://www.w3.org/2000/svg"
   xmlns="http://www.w3.org/2000/svg"
   xmlns:sodipodi="http://sodipodi.sourceforge.net/DTD/sodipodi-0.dtd"
   xmlns:inkscape="http://www.inkscape.org/namespaces/inkscape"
   width="744.09448819"
   height="1052.3622047"
   id="svg3839"
   version="1.1"
   inkscape:version="0.48.2 r9819"
   sodipodi:docname="Level 2.svg">
  <defs
     id="defs3841" />
  <sodipodi:namedview
     id="base"
     pagecolor="#ffffff"
     bordercolor="#666666"
     borderopacity="1.0"
     inkscape:pageopacity="0.0"
     inkscape:pageshadow="2"
     inkscape:zoom="0.98994949"
     inkscape:cx="417.65618"
     inkscape:cy="725.51941"
     inkscape:document-units="px"
     inkscape:current-layer="layer1"
     showgrid="false"
     inkscape:window-width="1920"
     inkscape:window-height="1060"
     inkscape:window-x="-8"
     inkscape:window-y="-8"
     inkscape:window-maximized="1" />
  <metadata
     id="metadata3844">
    <rdf:RDF>
      <cc:Work
         rdf:about="">
        <dc:format>image/svg+xml</dc:format>
        <dc:type
           rdf:resource="http://purl.org/dc/dcmitype/StillImage" />
        <dc:title></dc:title>
      </cc:Work>
    </rdf:RDF>
  </metadata>
  <g
     inkscape:label="Layer 1"
     inkscape:groupmode="layer"
     id="layer1">
    <path
       style="font-size:medium;font-style:normal;font-variant:normal;font-weight:normal;font-stretch:normal;text-indent:0;text-align:start;text-decoration:none;line-height:normal;letter-spacing:normal;word-spacing:normal;text-transform:none;direction:ltr;block-progression:tb;writing-mode:lr-tb;text-anchor:start;baseline-shift:baseline;color:#000000;fill:#b3b3b3;fill-opacity:1;stroke:none;stroke-width:10;marker:none;visibility:visible;display:inline;overflow:visible;enable-background:accumulate;font-family:Sans;-inkscape-font-specification:Sans"
       d="M 65.75,186.64347 0,252.42472 l 0,98.4375 62.84375,62.875 0,72.96875 L 0,549.58097 l 0,105.56251 62.84375,62.875 0,92.9687 L 0,873.86218 l 0,112.6875 65.75,65.81252 132.75,0 65.78125,-65.81252 0,-112.6875 -62.84375,-62.8437 0,-93.0313 62.84375,-62.8437 0,-105.56251 -62.84375,-62.84375 0,-73.03125 62.84375,-62.84375 0,-98.4375 L 198.5,186.64347 z"
       id="path3904" />
    <path
       inkscape:connector-curvature="0"
       style="font-size:medium;font-style:normal;font-variant:normal;font-weight:normal;font-stretch:normal;text-indent:0;text-align:start;text-decoration:none;line-height:normal;letter-spacing:normal;word-spacing:normal;text-transform:none;direction:ltr;block-progression:tb;writing-mode:lr-tb;text-anchor:start;baseline-shift:baseline;color:#000000;fill:#ff0000;fill-opacity:1;stroke:none;stroke-width:10;marker:none;visibility:visible;display:inline;overflow:visible;enable-background:accumulate;font-family:Sans;-inkscape-font-specification:Sans"
       d="M 65.75,186.64347 0,252.42472 l 0,98.4375 62.84375,62.875 0,72.96875 L 0,549.58097 l 0,105.56251 62.84375,62.875 0,92.9687 L 0,873.86218 l 0,112.6875 65.75,65.81252 132.75,0 65.78125,-65.81252 0,-112.6875 -62.84375,-62.8437 0,-93.0313 62.84375,-62.8437 0,-105.56251 -62.84375,-62.84375 0,-73.03125 62.84375,-62.84375 0,-98.4375 L 198.5,186.64347 z m 4.15625,10 124.4375,0 59.9375,59.9375 0,90.125 -62.84375,62.875 0,81.28125 62.84375,62.875 0,97.24996 -62.84375,62.875 0,101.2813 62.84375,62.875 0,104.375 -59.9375,59.96872 -124.4375,0 L 10,982.42468 l 0,-104.4375 62.84375,-62.8437 0,-101.2813 L 10,651.01848 l 0,-97.31251 62.84375,-62.84375 0,-81.28125 L 10,346.73722 l 0,-90.1875 z m 62.25,325 -48.21875,48.1875 0,66.46871 48.21875,48.2188 48.15625,-48.2188 0,-66.46871 z"
       id="path2998"
       sodipodi:nodetypes="ccccccccccccccccccccccccccccccccccccccccccccccccccccccccc" />
  </g>
</svg>
